<svg width="52" height="45" viewBox="0 0 52 45" fill="none" xmlns="http://www.w3.org/2000/svg">
<g clip-path="url(#clip0_315_1262)">
<path d="M40.0181 0.898438H10.9639V5.63556H40.0181V0.898438Z" fill="#D4D4D4"/>
<path d="M49.2591 36.0185L44.6386 5.22717H7.43982L2.81934 36.0185H49.2591Z" fill="#27396B"/>
<path d="M5.3252 34.3849H46.6746L42.6023 6.77893H9.4758L5.3252 34.3849Z" fill="#1E2D4F"/>
<path d="M29.7591 3.34866L31.7952 0H42.7591V17.8867H9.31934V3.34866H29.7591Z" fill="#DE8E0D"/>
<path d="M40.2531 0V7.84076H9.31934V17.8867H42.7591V0H40.2531Z" fill="#BF7008"/>
<path d="M40.4098 9.55591H10.4941V14.293H40.4098V9.55591Z" fill="#F0F0F0"/>
<path d="M29.994 11.9245L32.1085 8.41248H43.6989V27.361H8.30127V11.9245H29.994Z" fill="#FFB700"/>
<path d="M41.1145 8.41248V15.5182H8.30127V27.361H43.6989V8.41248H41.1145Z" fill="#DE8E0D"/>
<path d="M41.6627 17.5601H9.31934V22.2972H41.6627V17.5601Z" fill="white"/>
<path d="M30.307 19.8469L32.6564 16.0082H45.2648V36.5902H6.81299V19.8469H30.307Z" fill="#FFCA00"/>
<path d="M30.307 20.4187L32.6564 16.4983H45.2648V37.0803H6.81299V20.4187H30.307Z" fill="#FFCA00"/>
<path d="M42.9937 16.0082V26.2175H6.81299V36.5902H45.2648V16.0082H42.9937Z" fill="#FFB700"/>
<path d="M26.0781 28.3411H1.09619V49.8215H26.0781V28.3411Z" fill="#4E6EAD"/>
<path d="M50.9819 28.3411H26V49.8215H50.9819V28.3411Z" fill="#36528A"/>
<path d="M26 27.1976H0V50.9649H26V27.1976Z" fill="#36528A"/>
<path d="M52 27.1976H26V50.9649H52V27.1976Z" fill="#27396B"/>
<path d="M26.0781 28.3411H1.09619V49.8215H26.0781V28.3411Z" fill="#4E6EAD"/>
<path d="M26.0781 28.3411H1.09619V49.8215H26.0781V28.3411Z" fill="#4E6EAD"/>
<path d="M50.9819 28.3411H26V49.8215H50.9819V28.3411Z" fill="#36528A"/>
<path d="M31.7952 44.4309H26V47.2895H31.7952V44.4309Z" fill="#27396B"/>
<path d="M26.0784 44.4309H20.2832V47.2895H26.0784V44.4309Z" fill="#36528A"/>
<path d="M7.43959 37.0802C7.43959 38.2237 6.57814 39.1221 5.48176 39.1221C4.38537 39.1221 3.52393 38.2237 3.52393 37.0802V32.4248C3.52393 31.2814 4.38537 30.3829 5.48176 30.3829C6.57814 30.3829 7.43959 31.2814 7.43959 32.4248V37.0802Z" fill="#9ECBDE"/>
</g>
<defs>
<clipPath id="clip0_315_1262">
<rect width="52" height="45" fill="white"/>
</clipPath>
</defs>
</svg>
